<mxfile host="app.diagrams.net" modified="2023-08-28T12:24:20.828Z" agent="Mozilla/5.0 (Windows NT 10.0; Win64; x64) AppleWebKit/537.36 (KHTML, like Gecko) Chrome/116.0.0.0 Safari/537.36" etag="FO31nLkiqV9255zsTu8R" version="21.6.9" type="device">
  <diagram name="PÃ¡gina-1" id="elQJIqAhuHyEnO_I5qYp">
    <mxGraphModel dx="1054" dy="578" grid="1" gridSize="10" guides="1" tooltips="1" connect="1" arrows="1" fold="1" page="1" pageScale="1" pageWidth="827" pageHeight="1169" math="0" shadow="0">
      <root>
        <mxCell id="0" />
        <mxCell id="1" parent="0" />
        <mxCell id="WPsyiAI3roOQtpe5C7p6-1" value="&lt;font face=&quot;Comic Sans MS&quot;&gt;Aluno&lt;/font&gt;" style="swimlane;fontStyle=1;align=center;verticalAlign=top;childLayout=stackLayout;horizontal=1;startSize=26;horizontalStack=0;resizeParent=1;resizeParentMax=0;resizeLast=0;collapsible=1;marginBottom=0;whiteSpace=wrap;html=1;" vertex="1" parent="1">
          <mxGeometry x="283" y="200" width="261" height="154" as="geometry" />
        </mxCell>
        <mxCell id="WPsyiAI3roOQtpe5C7p6-2" value="&lt;font face=&quot;Times New Roman&quot;&gt;CPF: string&lt;br&gt;Nome: string&lt;/font&gt;" style="text;strokeColor=none;fillColor=none;align=left;verticalAlign=top;spacingLeft=4;spacingRight=4;overflow=hidden;rotatable=0;points=[[0,0.5],[1,0.5]];portConstraint=eastwest;whiteSpace=wrap;html=1;" vertex="1" parent="WPsyiAI3roOQtpe5C7p6-1">
          <mxGeometry y="26" width="261" height="94" as="geometry" />
        </mxCell>
        <mxCell id="WPsyiAI3roOQtpe5C7p6-3" value="" style="line;strokeWidth=1;fillColor=none;align=left;verticalAlign=middle;spacingTop=-1;spacingLeft=3;spacingRight=3;rotatable=0;labelPosition=right;points=[];portConstraint=eastwest;strokeColor=inherit;" vertex="1" parent="WPsyiAI3roOQtpe5C7p6-1">
          <mxGeometry y="120" width="261" height="8" as="geometry" />
        </mxCell>
        <mxCell id="WPsyiAI3roOQtpe5C7p6-4" value="&lt;font face=&quot;Courier New&quot;&gt;Estudar() : void&lt;/font&gt;" style="text;strokeColor=none;fillColor=none;align=left;verticalAlign=top;spacingLeft=4;spacingRight=4;overflow=hidden;rotatable=0;points=[[0,0.5],[1,0.5]];portConstraint=eastwest;whiteSpace=wrap;html=1;" vertex="1" parent="WPsyiAI3roOQtpe5C7p6-1">
          <mxGeometry y="128" width="261" height="26" as="geometry" />
        </mxCell>
      </root>
    </mxGraphModel>
  </diagram>
</mxfile>
